**ABCDEFGHIJKLMNOPQRSTUVWXYZabcdefghijklmnopqrstuvwxyz**************************
**PARASOLID !"#$%&'()*+,-./:;<=>?@[\]^_`{|}~0123456789**************************
**PART1;
MC=AMD64;
MC_MODEL=Intel64 Family 6 Model 158 Stepping 9, GenuineIntel;
MC_ID=unknown;
OS=Windows_NT;
OS_RELEASE=unknown;
FRU=Parasolid Version 31.0, build 203,  8- 8-2018;
APPL=SOLIDWORKS 2019-2018263;
SITE=;
USER=unknown;
FORMAT=text;
GUISE=transmit;
KEY=Corpo de prova_v2;
FILE=Corpo de prova_v2.x_t;
DATE=Sun Oct  6 12:11:53 2019;
**PART2;
SCH=SCH_3100203_31001;
USFLD_SIZE=0;
**PART3;
**END_OF_HEADER*****************************************************************
T51 : TRANSMIT FILE created by modeller version 310020323 SCH_3100203_31001_1300
6215 0 12 34 CCCCCCI4 mesh1006 0 I8 polyline1008 0 CCCCCCCDI5 owner1040 0 CCCCCC
I13 boundary_mesh1006 0 I17 boundary_polyline1008 0 CCCA16 index_map_offset0 0 1
 dA9 index_map82 0 A17 node_id_index_map82 0 A20 schema_embedding_map82 0 A5 chi
ld12 0 A14 lowest_node_id0 0 1 dA16 mesh_offset_data206 0 Z1 301 2 3 0 0 0 0 0 0
 1e3 1e-8 0 4 0 1 0 1 1 5 6 7 8 0 0 9 10 11 0 0 0 0 0 0 0 81 255 2 2 291 12 1 13
 0 0 0 0 14 70 11 CI9 list_type0 0 1 uI10 notransmit0 0 1 lCCCDCCDI12 finger_ind
ex0 0 1 dI12 finger_block1012 0 CZ3 0 4 T1 0 0 9 20 1 15 15 13 255 5 174 0 1 0 1
6 0 0 17 0 50 255 6 165 0 16 18 0 0 +-.0540934530638892 0 .005 1 0 0 0 0 -1 30 2
55 7 173 0 10 19 0 0 +-.0540934530638892 0 .005 0 0 -1 29 255 8 126 0 20 21 0 -.
0540934530638892 .015 0 19 8 CCCCCCCA5 owner12 0 Z9 52 0 1 17 0 22 V0 16 255 10
 141 0 ?23 0 24 7 0 0 1 18 255 11 49 0 25 0 26 27 ?1 17 255 25 0 28 29 30 11 31
 32 0 33 +18 26 46 0 30 11 34 35 ?1 29 27 51 0 11 35 36 -.0540934530638892 .015
 .005 29 35 48 0 26 37 27 -.01409345306388914 .015 .005 29 36 133 0 38 27 39 -.0
540934530638892 0 0 18 38 116 0 40 41 0 36 ?1 29 39 132 0 41 36 42 -.01409345306
388914 0 0 18 41 115 0 43 44 38 39 ?1 29 42 131 0 44 39 45 -.01409345306388914 .
005 0 18 44 114 0 46 47 41 42 ?1 29 45 130 0 47 42 48 .0859065469361109 .0050000
0000000006 0 18 47 113 0 49 50 44 45 ?1 29 48 129 0 50 45 51 .0859065469361109 .
01 0 18 50 112 0 52 53 47 48 ?1 29 51 128 0 53 48 21 -.01409345306388914 .01 0 1
8 53 111 0 54 55 50 51 ?1 29 21 127 0 55 51 8 -.01409345306388914 .015 0 18 55 1
10 0 56 20 53 21 ?1 17 56 0 57 58 59 55 60 61 0 62 +18 20 109 0 63 64 55 8 ?1 17
 63 0 65 33 62 20 66 67 0 68 +18 64 28 0 69 70 20 71 ?1 17 69 0 72 23 73 64 74 7
5 0 29 -18 70 31 0 74 76 64 77 ?1 29 71 30 0 64 0 77 -.0540934530638892 0 .005 2
9 77 33 0 70 71 78 -.01409345306388914 0 .005 29 78 36 0 76 77 79 -.014093453063
88914 .005 .005 18 76 34 0 80 81 70 78 ?1 29 79 39 0 81 78 82 .0859065469361109
 .00500000000000006 .005 18 81 37 0 83 84 76 79 ?1 29 82 42 0 84 79 37 .08590654
69361109 .01 .005 18 84 40 0 85 34 81 82 ?1 29 37 45 0 34 82 35 -.01409345306388
914 .01 .005 18 34 43 0 86 26 84 37 ?1 17 86 0 28 30 85 34 87 88 0 89 +15 255 28
 3 0 29 90 0 17 30 0 28 25 86 26 91 92 0 58 +17 85 0 28 86 83 84 93 94 0 95 +17
 87 0 96 97 89 84 86 88 0 0 -16 88 19 0 ?86 92 94 98 0 0 1 17 89 0 96 87 54 34 5
9 99 0 91 -15 96 146 0 54 100 0 17 54 0 96 89 97 53 101 102 0 59 +17 59 0 57 56
 91 53 89 99 0 60 +16 99 136 0 ?59 103 104 105 0 0 1 17 91 0 57 59 58 34 30 92 0
 0 -15 57 144 0 56 106 0 17 58 0 57 91 56 26 62 104 0 31 -16 92 22 0 ?30 32 88 1
07 0 0 1 16 32 25 0 ?25 108 92 109 0 0 1 30 107 23 0 92 98 109 0 +-.014093453063
88914 .015 .005 3469446951953595e-31 1 0 30 98 20 0 88 110 107 0 +-.014093453063
88914 .01 .005 -1 -208166817117217e-30 0 30 109 26 0 32 107 111 0 +-.05409345306
38892 .015 .005 -1 0 0 30 111 125 0 112 109 113 0 +-.0540934530638892 0 0 0 -1 0
 16 112 105 0 ?114 115 0 111 0 0 1 30 113 124 0 115 111 116 0 +-.054093453063889
2 0 0 1 0 0 16 115 101 0 ?43 117 112 113 0 0 1 30 116 123 0 117 113 118 0 +-.014
09345306388914 .005 0 0 1 0 16 117 97 0 ?46 119 115 116 0 0 1 30 118 122 0 119 1
16 120 0 +-.01409345306388914 .005 0 1 624500451351651e-30 0 16 119 93 0 ?49 121
 117 118 0 0 1 30 120 121 0 121 118 122 0 +.0859065469361109 .01 0 0 1 0 16 121
 89 0 ?52 102 119 120 0 0 1 30 122 120 0 102 120 123 0 +-.01409345306388914 .01
 0 -1 -208166817117217e-30 0 16 102 85 0 ?54 61 121 122 0 0 1 30 123 119 0 61 12
2 124 0 +-.01409345306388914 .015 0 3469446951953595e-31 1 0 16 61 81 0 ?56 67 1
02 123 0 0 1 30 124 118 0 67 123 125 0 +-.0540934530638892 .015 0 -1 0 0 16 67 7
7 0 ?63 126 61 124 0 0 1 30 125 166 0 108 124 127 0 +-.0540934530638892 .015 .00
5 0 0 -1 16 108 134 0 ?68 104 32 125 0 0 1 30 127 167 0 104 125 105 0 +-.0140934
5306388914 .015 .005 0 0 -1 16 104 135 0 ?62 99 108 127 0 0 1 30 105 168 0 99 12
7 128 0 +-.01409345306388914 .01 .005 0 0 -1 30 128 169 0 103 105 129 0 +.085906
5469361109 .01 .005 0 0 -1 16 103 137 0 ?97 130 99 128 0 0 1 30 129 170 0 130 12
8 131 0 +.0859065469361109 .00500000000000006 .005 0 0 -1 16 130 138 0 ?132 133
 103 129 0 0 1 30 131 171 0 133 129 19 0 +-.01409345306388914 .005 .005 0 0 -1 1
6 133 139 0 ?134 24 130 131 0 0 1 30 19 172 0 24 131 7 0 +-.01409345306388914 0
 .005 0 0 -1 16 24 140 0 ?135 10 133 19 0 0 1 17 135 0 136 46 137 41 73 24 0 138
 +15 136 152 0 46 139 0 17 46 0 136 140 135 44 138 117 0 134 +17 137 0 136 135 1
40 70 80 141 0 0 -17 73 0 72 69 43 70 135 24 0 137 -17 138 0 142 40 143 41 46 11
7 0 0 -15 142 76 0 144 145 0 17 40 0 142 144 138 38 43 115 0 23 -17 143 0 142 13
8 146 44 49 119 0 0 -17 146 0 142 143 101 47 52 121 0 0 -17 49 0 147 148 134 47
 143 119 0 132 +15 147 150 0 49 149 0 17 148 0 147 150 49 81 132 130 0 93 -17 13
4 0 147 49 150 44 140 133 0 143 +17 132 0 151 52 93 47 148 130 0 146 +15 151 148
 0 52 152 0 17 52 0 151 95 132 50 146 121 0 97 +17 93 0 151 132 95 81 85 94 0 0
 -17 95 0 151 93 52 84 97 103 0 87 -16 94 16 0 ?85 88 153 110 0 0 1 16 153 13 0
 ?83 94 141 154 0 0 1 30 110 17 0 94 154 98 0 +.0859065469361109 .01 .005 0 1 0
 30 154 14 0 153 155 110 0 +-.01409345306388914 .005 .005 1 624500451351651e-30
 0 30 155 11 0 141 156 154 0 +-.01409345306388914 .005 .005 0 1 0 16 141 10 0 ?8
0 153 75 155 0 0 1 30 156 8 0 75 157 155 0 +-.0540934530638892 0 .005 1 0 0 16 7
5 7 0 ?74 141 126 156 0 0 1 30 157 5 0 126 0 156 0 +-.0540934530638892 0 .005 0
 -1 0 16 126 4 0 ?29 75 67 157 0 0 1 17 29 0 28 74 25 64 158 126 0 159 +17 74 0
 28 80 29 70 69 75 0 73 +17 158 0 160 68 159 11 29 126 0 0 -17 159 0 160 158 114
 64 23 10 0 0 -15 160 156 0 114 16 0 17 114 0 160 159 68 38 144 112 0 0 +17 23 0
 72 43 69 38 159 10 0 114 +15 72 154 0 43 161 0 17 43 0 72 73 23 41 40 115 0 135
 +14 255 161 155 162 ?139 16 72 5 18 -0 0 139 16 22 81 1 162 292 163 161 164 0 0
 165 166 14 139 153 165 ?149 161 136 5 167 -0 0 149 161 22 14 16 157 168 ?161 0
 160 5 6 -0 0 161 0 22 50 18 164 0 161 167 6 0 +-.0540934530638892 0 .005 0 1 0
 0 0 1 13 22 53 0 0 0 0 0 0 9 16 50 167 163 0 139 169 18 0 +-.01409345306388914
 .005 .005 -1 0 0 0 0 1 50 169 162 0 149 170 167 0 +-.01409345306388914 .005 .00
5 -624500451351651e-30 1 0 -1 -624500451351651e-30 0 14 149 151 171 ?152 139 147
 5 169 -0 0 152 139 22 50 170 161 0 152 172 169 0 +.0859065469361109 .01 .005 -1
 0 0 0 0 1 14 152 149 173 ?100 149 151 5 170 -0 0 100 149 22 50 172 160 0 100 17
4 170 0 +-.01409345306388914 .01 .005 208166817117217e-30 -1 0 1 208166817117217
e-30 0 14 100 147 175 ?106 152 96 5 172 -0 0 106 152 22 50 174 159 0 106 176 172
 0 +-.01409345306388914 .015 .005 -1 3469446951953595e-31 0 -3469446951953595e-3
1 -1 0 14 106 145 177 ?178 100 57 5 174 -0 0 178 100 22 50 176 158 0 178 179 174
 0 +-.0540934530638892 .015 .005 0 -1 0 0 0 -1 14 178 143 180 ?90 106 65 5 176 -
0 0 90 106 22 50 179 117 0 145 181 176 0 +0 0 0 0 0 -1 -1 0 0 14 145 75 182 ?0 9
0 142 5 179 +0 0 0 90 22 50 181 2 0 90 0 179 0 +0 0 .005 0 0 -1 -1 0 0 14 90 1 1
83 ?145 178 28 5 181 -0 0 145 178 22 81 1 183 301 163 90 184 0 182 0 185 80 255
 1 163 186 187 9000 1 1 1 1 1 1 1 1 0 FFFFTFTFFFFFFF1 81 1 184 268 188 90 0 183
 189 190 191 81 1 182 300 163 145 190 0 180 183 192 82 255 1 185 2077032733 81 1
 190 269 188 145 0 182 184 0 193 81 1 180 299 163 178 189 0 177 182 194 82 1 192
 2087387421 81 1 189 267 188 178 0 180 195 184 196 81 1 177 298 163 106 195 0 17
5 180 197 82 1 194 2089091357 81 1 195 266 188 106 0 177 198 189 199 81 1 175 29
7 163 100 198 0 173 177 200 82 1 197 2089353501 81 1 198 265 188 100 0 175 201 1
95 202 81 1 173 296 163 152 201 0 171 175 203 82 1 200 2089615645 81 1 201 264 1
88 152 0 173 204 198 205 81 1 171 295 163 149 204 0 168 173 206 82 1 203 2089877
789 81 1 204 263 188 149 0 171 207 201 208 81 1 168 294 163 16 209 0 165 171 210
 82 1 206 2090139933 81 1 209 260 188 16 0 168 0 164 211 81 1 165 293 163 139 20
7 0 162 168 212 82 1 210 2090926365 81 1 207 262 188 139 0 165 164 204 213 82 1
 212 2090402077 80 1 188 0 214 8001 0 0 0 0 3 5 0 0 0 FFFFTFTFFFFFFF2 81 1 164 2
61 188 161 0 162 209 207 215 83 255 3 213 .752941176470588 .752941176470588 .752
941176470588 83 3 215 .752941176470588 .752941176470588 .752941176470588 79 255
 15 214 SDL/TYSA_COLOUR83 3 211 .752941176470588 .752941176470588 .7529411764705
88 83 3 208 .752941176470588 .752941176470588 .752941176470588 83 3 205 .7529411
76470588 .752941176470588 .752941176470588 83 3 202 .752941176470588 .7529411764
70588 .752941176470588 83 3 199 .752941176470588 .752941176470588 .7529411764705
88 83 3 196 .752941176470588 .752941176470588 .752941176470588 83 3 193 .7529411
76470588 .752941176470588 .752941176470588 83 3 191 .752941176470588 .7529411764
70588 .752941176470588 79 14 187 SWEntUnchanged15 65 142 0 63 178 0 82 1 166 209
0664221 17 68 0 160 114 158 20 33 108 0 144 +17 144 0 142 66 40 20 114 112 0 0 -
17 66 0 142 60 144 55 63 67 0 0 -17 60 0 142 101 66 53 56 61 0 0 -17 101 0 142 1
46 60 50 54 102 0 0 -17 33 0 65 31 63 11 68 108 0 158 -17 31 0 65 62 33 26 25 32
 0 0 -17 62 0 65 63 31 55 58 104 0 66 +17 80 0 28 83 74 76 137 141 0 140 +17 83
 0 28 85 80 81 150 153 0 148 +17 140 0 136 137 46 76 134 133 0 150 -17 150 0 147
 134 148 76 83 153 0 0 -17 97 0 96 54 87 50 95 103 0 101 +19 17 175 0 1 0 9 5 S0
 74 4 CI16 index_map_offset0 0 1 dCCZ20 15 9 0 0 216 217 183 218 219 220 13 190
 2 0 0 0 0 0 0 0 0 0 0 0 81 2 216 215 221 1 0 217 0 0 0 222 81 2 217 219 223 1 2
16 218 0 0 0 224 81 1 218 230 225 1 217 219 0 0 226 81 2 219 243 227 1 218 220 0
 0 0 228 81 2 220 246 229 1 219 13 0 0 0 0 81 2 13 249 230 1 220 2 0 0 231 0 80
 2 230 232 233 8004 0 0 0 0 3 5 0 0 0 FFTFFFFFFFFFFF2 3 83 1 231 1020 79 16 233
 SDL/TYSA_DENSITY80 2 229 234 235 9000 0 0 0 0 3 5 0 0 0 FFTFFFFFFFFFFF9 1 79 16
 235 BODY_RECIPE_200180 2 227 236 237 9000 0 0 0 0 3 5 0 0 0 FFTFFFFFFFFFFF9 1 8
2 1 228 1 79 24 237 BODY_IN_LIGHTWEIGHT_PERM80 1 225 238 239 9000 1 1 1 1 1 1 1
 1 0 FFTFFFFFFFFFFF1 82 1 226 31690 79 10 239 BODY_MATCH80 2 223 240 241 9000 0
 0 0 0 3 5 0 0 0 FFTFFFFFFFFFFF9 1 82 1 224 38 79 30 241 LAST_BODY_MODIFYING_FEA
TURE_ID80 2 221 242 243 9000 0 0 0 0 3 5 0 0 0 FFTFFFFFFFFFFF9 1 82 1 222 106 79
 19 243 ENT_TIME_STAMP_200180 2 12 244 245 9000 0 0 0 0 3 5 0 0 0 FFTFFFFFFFFFFF
9 1 82 1 14 101 79 12 245 ATOM_ID_20011 0 
