**ABCDEFGHIJKLMNOPQRSTUVWXYZabcdefghijklmnopqrstuvwxyz**************************
**PARASOLID !"#$%&'()*+,-./:;<=>?@[\]^_`{|}~0123456789**************************
**PART1;
MC=AMD64;
MC_MODEL=Intel64 Family 6 Model 158 Stepping 9, GenuineIntel;
MC_ID=unknown;
OS=Windows_NT;
OS_RELEASE=unknown;
FRU=Parasolid Version 28.0, build 174,  7- 3-2015;
APPL=SOLIDWORKS 2016-2015266;
SITE=;
USER=unknown;
FORMAT=text;
GUISE=transmit;
KEY=Corpo de prova;
FILE=Corpo de prova.x_t;
DATE=Wed Sep 05 13:54:40 2018;
**PART2;
SCH=SCH_2800174_28002;
USFLD_SIZE=0;
**PART3;
**END_OF_HEADER*****************************************************************
T51 : TRANSMIT FILE created by modeller version 280017423 SCH_2800174_28002_1300
6200 0 12 30 CCCCCCCCCCCCCDI5 owner1040 0 CCCCCCCCCA13 boundary_mesh1006 0 A16 i
ndex_map_offset0 0 1 dA9 index_map82 0 A17 node_id_index_map82 0 A20 schema_embe
dding_map82 0 A5 child12 0 A14 lowest_node_id0 0 1 dZ1 289 0 2 0 0 0 0 1e3 1e-8
 0 3 0 1 0 1 1 4 5 6 7 8 9 10 0 0 0 0 0 0 0 70 11 CI9 list_type0 0 1 uI10 notran
smit0 0 1 lCCCDCCDI12 finger_index0 0 1 dI12 finger_block1012 0 CZ2 0 4 T1 0 0 2
 20 1 11 11 13 255 4 174 0 1 0 12 0 0 13 0 50 255 5 165 0 12 14 0 0 +-.054093453
0638892 0 .005 1 0 0 0 0 -1 30 255 6 173 0 9 15 0 0 +-.0540934530638892 0 .005 0
 0 -1 29 255 7 126 0 16 17 0 -.0540934530638892 .015 0 19 8 CCCCCCCA5 owner12 0
 Z8 52 0 1 13 0 18 V0 16 255 9 141 0 ?19 0 20 6 0 0 1 18 255 10 49 0 21 0 22 23
 ?1 17 255 21 0 24 25 26 10 27 28 0 29 +18 22 46 0 26 10 30 31 ?1 29 23 51 0 10
 31 32 -.0540934530638892 .015 .005 29 31 48 0 22 33 23 -.01409345306388914 .015
 .005 29 32 133 0 34 23 35 -.0540934530638892 0 0 18 34 116 0 36 37 0 32 ?1 29 3
5 132 0 37 32 38 -.01409345306388914 0 0 18 37 115 0 39 40 34 35 ?1 29 38 131 0
 40 35 41 -.01409345306388914 .005 0 18 40 114 0 42 43 37 38 ?1 29 41 130 0 43 3
8 44 .0859065469361109 .00500000000000006 0 18 43 113 0 45 46 40 41 ?1 29 44 129
 0 46 41 47 .0859065469361109 .01 0 18 46 112 0 48 49 43 44 ?1 29 47 128 0 49 44
 17 -.01409345306388914 .01 0 18 49 111 0 50 51 46 47 ?1 29 17 127 0 51 47 7 -.0
1409345306388914 .015 0 18 51 110 0 52 16 49 17 ?1 17 52 0 53 54 55 51 56 57 0 5
8 +18 16 109 0 59 60 51 7 ?1 17 59 0 61 29 58 16 62 63 0 64 +18 60 28 0 65 66 16
 67 ?1 17 65 0 68 19 69 60 70 71 0 25 -18 66 31 0 70 72 60 73 ?1 29 67 30 0 60 0
 73 -.0540934530638892 0 .005 29 73 33 0 66 67 74 -.01409345306388914 0 .005 29
 74 36 0 72 73 75 -.01409345306388914 .005 .005 18 72 34 0 76 77 66 74 ?1 29 75
 39 0 77 74 78 .0859065469361109 .00500000000000006 .005 18 77 37 0 79 80 72 75
 ?1 29 78 42 0 80 75 33 .0859065469361109 .01 .005 18 80 40 0 81 30 77 78 ?1 29
 33 45 0 30 78 31 -.01409345306388914 .01 .005 18 30 43 0 82 22 80 33 ?1 17 82 0
 24 26 81 30 83 84 0 85 +15 255 24 3 0 25 86 0 17 26 0 24 21 82 22 87 88 0 54 +1
7 81 0 24 82 79 80 89 90 0 91 +17 83 0 92 93 85 80 82 84 0 0 -16 84 19 0 ?82 88
 90 94 0 0 1 17 85 0 92 83 50 30 55 95 0 87 -15 92 146 0 50 96 0 17 50 0 92 85 9
3 49 97 98 0 55 +17 55 0 53 52 87 49 85 95 0 56 +16 95 136 0 ?55 99 100 101 0 0
 1 17 87 0 53 55 54 30 26 88 0 0 -15 53 144 0 52 102 0 17 54 0 53 87 52 22 58 10
0 0 27 -16 88 22 0 ?26 28 84 103 0 0 1 16 28 25 0 ?21 104 88 105 0 0 1 30 103 23
 0 88 94 105 0 +-.01409345306388914 .015 .005 3469446951953595e-31 1 0 30 94 20
 0 84 106 103 0 +-.01409345306388914 .01 .005 -1 -208166817117217e-30 0 30 105 2
6 0 28 103 107 0 +-.0540934530638892 .015 .005 -1 0 0 30 107 125 0 108 105 109 0
 +-.0540934530638892 0 0 0 -1 0 16 108 105 0 ?110 111 0 107 0 0 1 30 109 124 0 1
11 107 112 0 +-.0540934530638892 0 0 1 0 0 16 111 101 0 ?39 113 108 109 0 0 1 30
 112 123 0 113 109 114 0 +-.01409345306388914 .005 0 0 1 0 16 113 97 0 ?42 115 1
11 112 0 0 1 30 114 122 0 115 112 116 0 +-.01409345306388914 .005 0 1 6245004513
51651e-30 0 16 115 93 0 ?45 117 113 114 0 0 1 30 116 121 0 117 114 118 0 +.08590
65469361109 .01 0 0 1 0 16 117 89 0 ?48 98 115 116 0 0 1 30 118 120 0 98 116 119
 0 +-.01409345306388914 .01 0 -1 -208166817117217e-30 0 16 98 85 0 ?50 57 117 11
8 0 0 1 30 119 119 0 57 118 120 0 +-.01409345306388914 .015 0 3469446951953595e-
31 1 0 16 57 81 0 ?52 63 98 119 0 0 1 30 120 118 0 63 119 121 0 +-.0540934530638
892 .015 0 -1 0 0 16 63 77 0 ?59 122 57 120 0 0 1 30 121 166 0 104 120 123 0 +-.
0540934530638892 .015 .005 0 0 -1 16 104 134 0 ?64 100 28 121 0 0 1 30 123 167 0
 100 121 101 0 +-.01409345306388914 .015 .005 0 0 -1 16 100 135 0 ?58 95 104 123
 0 0 1 30 101 168 0 95 123 124 0 +-.01409345306388914 .01 .005 0 0 -1 30 124 169
 0 99 101 125 0 +.0859065469361109 .01 .005 0 0 -1 16 99 137 0 ?93 126 95 124 0
 0 1 30 125 170 0 126 124 127 0 +.0859065469361109 .00500000000000006 .005 0 0 -
1 16 126 138 0 ?128 129 99 125 0 0 1 30 127 171 0 129 125 15 0 +-.01409345306388
914 .005 .005 0 0 -1 16 129 139 0 ?130 20 126 127 0 0 1 30 15 172 0 20 127 6 0 +
-.01409345306388914 0 .005 0 0 -1 16 20 140 0 ?131 9 129 15 0 0 1 17 131 0 132 4
2 133 37 69 20 0 134 +15 132 152 0 42 135 0 17 42 0 132 136 131 40 134 113 0 130
 +17 133 0 132 131 136 66 76 137 0 0 -17 69 0 68 65 39 66 131 20 0 133 -17 134 0
 138 36 139 37 42 113 0 0 -15 138 76 0 140 141 0 17 36 0 138 140 134 34 39 111 0
 19 -17 139 0 138 134 142 40 45 115 0 0 -17 142 0 138 139 97 43 48 117 0 0 -17 4
5 0 143 144 130 43 139 115 0 128 +15 143 150 0 45 145 0 17 144 0 143 146 45 77 1
28 126 0 89 -17 130 0 143 45 146 40 136 129 0 139 +17 128 0 147 48 89 43 144 126
 0 142 +15 147 148 0 48 148 0 17 48 0 147 91 128 46 142 117 0 93 +17 89 0 147 12
8 91 77 81 90 0 0 -17 91 0 147 89 48 80 93 99 0 83 -16 90 16 0 ?81 84 149 106 0
 0 1 16 149 13 0 ?79 90 137 150 0 0 1 30 106 17 0 90 150 94 0 +.0859065469361109
 .01 .005 0 1 0 30 150 14 0 149 151 106 0 +-.01409345306388914 .005 .005 1 62450
0451351651e-30 0 30 151 11 0 137 152 150 0 +-.01409345306388914 .005 .005 0 1 0
 16 137 10 0 ?76 149 71 151 0 0 1 30 152 8 0 71 153 151 0 +-.0540934530638892 0
 .005 1 0 0 16 71 7 0 ?70 137 122 152 0 0 1 30 153 5 0 122 0 152 0 +-.0540934530
638892 0 .005 0 -1 0 16 122 4 0 ?25 71 63 153 0 0 1 17 25 0 24 70 21 60 154 122
 0 155 +17 70 0 24 76 25 66 65 71 0 69 +17 154 0 156 64 155 10 25 122 0 0 -17 15
5 0 156 154 110 60 19 9 0 0 -15 156 156 0 110 12 0 17 110 0 156 155 64 34 140 10
8 0 0 +17 19 0 68 39 65 34 155 9 0 110 +15 68 154 0 39 157 0 17 39 0 68 69 19 37
 36 111 0 131 +14 255 157 155 158 ?135 12 68 4 14 -0 0 135 12 18 81 255 1 158 28
0 159 157 160 0 0 161 162 14 135 153 161 ?145 157 132 4 163 -0 0 145 157 18 14 1
2 157 164 ?157 0 156 4 5 -0 0 157 0 18 50 14 164 0 157 163 5 0 +-.05409345306388
92 0 .005 0 1 0 0 0 1 13 18 53 0 0 0 0 0 0 8 12 50 163 163 0 135 165 14 0 +-.014
09345306388914 .005 .005 -1 0 0 0 0 1 50 165 162 0 145 166 163 0 +-.014093453063
88914 .005 .005 -624500451351651e-30 1 0 -1 -624500451351651e-30 0 14 145 151 16
7 ?148 135 143 4 165 -0 0 148 135 18 50 166 161 0 148 168 165 0 +.08590654693611
09 .01 .005 -1 0 0 0 0 1 14 148 149 169 ?96 145 147 4 166 -0 0 96 145 18 50 168
 160 0 96 170 166 0 +-.01409345306388914 .01 .005 208166817117217e-30 -1 0 1 208
166817117217e-30 0 14 96 147 171 ?102 148 92 4 168 -0 0 102 148 18 50 170 159 0
 102 172 168 0 +-.01409345306388914 .015 .005 -1 3469446951953595e-31 0 -3469446
951953595e-31 -1 0 14 102 145 173 ?174 96 53 4 170 -0 0 174 96 18 50 172 158 0 1
74 175 170 0 +-.0540934530638892 .015 .005 0 -1 0 0 0 -1 14 174 143 176 ?86 102
 61 4 172 -0 0 86 102 18 50 175 117 0 141 177 172 0 +0 0 0 0 0 -1 -1 0 0 14 141
 75 178 ?0 86 138 4 175 +0 0 0 86 18 50 177 2 0 86 0 175 0 +0 0 .005 0 0 -1 -1 0
 0 14 86 1 179 ?141 174 24 4 177 -0 0 141 174 18 81 1 179 289 159 86 180 0 178 0
 181 80 255 1 159 182 183 9000 1 1 1 1 1 1 1 1 0 FFFFTFTFFFFFFF1 81 1 180 256 18
4 86 0 179 185 186 187 81 1 178 288 159 141 186 0 176 179 188 82 255 1 181 20770
32733 81 1 186 257 184 141 0 178 180 0 189 81 1 176 287 159 174 185 0 173 178 19
0 82 1 188 2087387421 81 1 185 255 184 174 0 176 191 180 192 81 1 173 286 159 10
2 191 0 171 176 193 82 1 190 2089091357 81 1 191 254 184 102 0 173 194 185 195 8
1 1 171 285 159 96 194 0 169 173 196 82 1 193 2089353501 81 1 194 253 184 96 0 1
71 197 191 198 81 1 169 284 159 148 197 0 167 171 199 82 1 196 2089615645 81 1 1
97 252 184 148 0 169 200 194 201 81 1 167 283 159 145 200 0 164 169 202 82 1 199
 2089877789 81 1 200 251 184 145 0 167 203 197 204 81 1 164 282 159 12 205 0 161
 167 206 82 1 202 2090139933 81 1 205 248 184 12 0 164 0 160 207 81 1 161 281 15
9 135 203 0 158 164 208 82 1 206 2090926365 81 1 203 250 184 135 0 161 160 200 2
09 82 1 208 2090402077 80 1 184 0 210 8001 0 0 0 0 3 5 0 0 0 FFFFTFTFFFFFFF2 81
 1 160 249 184 157 0 158 205 203 211 83 255 3 209 .752941176470588 .752941176470
588 .752941176470588 83 3 211 .752941176470588 .752941176470588 .752941176470588
 79 255 15 210 SDL/TYSA_COLOUR83 3 207 .752941176470588 .752941176470588 .752941
176470588 83 3 204 .752941176470588 .752941176470588 .752941176470588 83 3 201 .
752941176470588 .752941176470588 .752941176470588 83 3 198 .752941176470588 .752
941176470588 .752941176470588 83 3 195 .752941176470588 .752941176470588 .752941
176470588 83 3 192 .752941176470588 .752941176470588 .752941176470588 83 3 189 .
752941176470588 .752941176470588 .752941176470588 83 3 187 .752941176470588 .752
941176470588 .752941176470588 79 14 183 SWEntUnchanged15 61 142 0 59 174 0 82 1
 162 2090664221 17 64 0 156 110 154 16 29 104 0 140 +17 140 0 138 62 36 16 110 1
08 0 0 -17 62 0 138 56 140 51 59 63 0 0 -17 56 0 138 97 62 49 52 57 0 0 -17 97 0
 138 142 56 46 50 98 0 0 -17 29 0 61 27 59 10 64 104 0 154 -17 27 0 61 58 29 22
 21 28 0 0 -17 58 0 61 59 27 51 54 100 0 62 +17 76 0 24 79 70 72 133 137 0 136 +
17 79 0 24 81 76 77 146 149 0 144 +17 136 0 132 133 42 72 130 129 0 146 -17 146
 0 143 130 144 72 79 149 0 0 -17 93 0 92 50 83 46 91 99 0 97 +19 13 175 0 1 0 8
 4 S0 74 4 CI16 index_map_offset0 0 1 dCCZ20 11 2 0 0 179 186 0 0 0 0 0 0 0 0 0
 0 0 0 0 0 0 0 0 0 1 0 
